<svg id="Layer_1" data-name="Layer 1" xmlns="http://www.w3.org/2000/svg" viewBox="0 0 406 148"><defs><style>.cls-1,.cls-2{fill:none;}.cls-2{stroke:#000;stroke-miterlimit:10;}.cls-3{fill:#fff;}</style></defs><title>Artboard 1</title><polygon class="cls-1" points="203.67 71.28 198.47 96.33 206.47 96.33 211.65 71.28 203.67 71.28"/><polygon class="cls-1" points="261.23 51.1 255.93 76.15 264.12 76.15 269.26 51.1 261.23 51.1"/><polygon class="cls-1" points="336.84 96.33 342.13 71.28 333.94 71.28 328.81 96.33 336.84 96.33"/><path d="M301.76,96.33H283.22L293.87,45a7.65,7.65,0,0,0-15-3.11l-12.57,60.54a7.65,7.65,0,0,0,7.5,9.21h27.95a7.66,7.66,0,1,0,0-15.31Zm-1.83,7.38H272a2,2,0,0,1-1.56-.75,2,2,0,0,1-.41-1.68l12.56-60.54a2,2,0,0,1,3.95.82L274.46,99.68h25.47a2,2,0,1,1,0,4Z"/><path d="M273.57,38.6a7.65,7.65,0,0,0-5.93-2.81H244a7.65,7.65,0,0,0-7.49,6.07L223.72,102.4a7.67,7.67,0,0,0,7.49,9.24h22.62a7.66,7.66,0,1,0,0-15.31H240.66l1-4.87h17.67a7.66,7.66,0,0,0,7.5-6.12L275.14,45A7.66,7.66,0,0,0,273.57,38.6Zm-5.78,3-8.28,40.36a2,2,0,0,1-2,1.61H240a2,2,0,1,1,0-4h15.94l7.45-36.33H243.83l-12,56.51H252a2,2,0,0,1,0,4H229.39a2,2,0,0,1-2-2.43l12.81-60.54a2,2,0,0,1,2-1.6h23.63a2,2,0,0,1,2,2.42ZM244.93,76.15l5.3-25.05h8l-5.14,25.05Z"/><path d="M361.8,38.62a7.67,7.67,0,0,0-5.95-2.83H333.23a7.66,7.66,0,1,0,0,15.31H346.4l-1,4.87H327.7a7.66,7.66,0,0,0-7.5,6.12l-8.28,40.36a7.66,7.66,0,0,0,7.5,9.19H343a7.65,7.65,0,0,0,7.49-6.07L363.34,45A7.67,7.67,0,0,0,361.8,38.62Zm-5.81,3-12.81,60.54a2,2,0,0,1-2,1.6H317.59A2,2,0,0,1,316,103a2,2,0,0,1-.41-1.68l8.28-40.36a2,2,0,0,1,2-1.61H343.1a2,2,0,1,1,0,4H327.51l-7.45,36.33h19.52l12-56.51H331.4a2,2,0,0,1,0-4H354a2,2,0,0,1,2,2.43ZM342.14,71.28l-5.3,25h-8l5.13-25Z"/><path d="M227,58.79A7.64,7.64,0,0,0,221,56h-14.2l2.28-11a7.65,7.65,0,0,0-15-3.11l-12.57,60.54a7.65,7.65,0,0,0,7.5,9.21h23.65a7.66,7.66,0,0,0,7.5-6.11l8.33-40.36A7.65,7.65,0,0,0,227,58.79Zm-5.79,3-8.33,40.36a2,2,0,0,1-2,1.61H187.23a2,2,0,0,1-2-2.43l12.57-60.54a2,2,0,1,1,3.94.82L189.71,99.68h19.53l7.5-36.33H201.5a2,2,0,0,1,0-4h17.72a2,2,0,0,1,1.56.74A2,2,0,0,1,221.19,61.74ZM198.47,96.33l5.2-25h8l-5.18,25Z"/><path class="cls-1" d="M219.22,59.32H201.5a2,2,0,0,0,0,4h15.24l-7.5,36.33H189.71l12.06-58.12a2,2,0,1,0-3.94-.82l-12.57,60.54a2,2,0,0,0,2,2.43h23.66a2,2,0,0,0,2-1.61l8.33-40.36a2,2,0,0,0-.41-1.68A2,2,0,0,0,219.22,59.32Z"/><g id="_Group_" data-name="&lt;Group&gt;"><polygon points="172 22.72 152.62 124.39 152.62 124.72 18.14 124.72 18.14 22.72 172 22.72"/><polyline class="cls-2" points="152.62 124.39 172 22.72 18.14 22.72 18.14 124.72 152.62 124.72 374.34 124.72 392.78 22.77"/><polyline class="cls-2" points="392.8 22.72 392.78 22.72 172 22.72"/></g><path class="cls-3" d="M72.64,69.56V57.29a9,9,0,0,0-2.28-6.55,8,8,0,0,0-6-2.33,8.21,8.21,0,0,0-4.27,1.13,8.1,8.1,0,0,0-3,3.09,7.26,7.26,0,0,0-2.87-3.13A8.24,8.24,0,0,0,50,48.41a6.92,6.92,0,0,0-6.47,3.42V48.71H38.2V69.56h5.31V58a5.16,5.16,0,0,1,1.26-3.74A4.52,4.52,0,0,1,48.18,53a4.47,4.47,0,0,1,3.38,1.3A5.2,5.2,0,0,1,52.8,58V69.56h5.27V58a5.16,5.16,0,0,1,1.26-3.74,5.1,5.1,0,0,1,6.8,0A5.2,5.2,0,0,1,67.37,58V69.56Z"/><path class="cls-3" d="M98.3,69.56V48.71H93V52a7.3,7.3,0,0,0-6.55-3.54,9.25,9.25,0,0,0-7.07,3,10.85,10.85,0,0,0-2.79,7.7,10.92,10.92,0,0,0,2.81,7.73,9.17,9.17,0,0,0,7,3A7.36,7.36,0,0,0,93,66.06v3.5Zm-6.92-5.93a5.34,5.34,0,0,1-3.86,1.64,5.28,5.28,0,0,1-3.86-1.66A6.1,6.1,0,0,1,82,59.1a6,6,0,0,1,1.63-4.48A5.31,5.31,0,0,1,87.5,53a5.37,5.37,0,0,1,3.88,1.64A6,6,0,0,1,93,59.14,6,6,0,0,1,91.38,63.63Z"/><path class="cls-3" d="M118.88,52a7.28,7.28,0,0,0-6.54-3.54,9.27,9.27,0,0,0-7.08,3,10.88,10.88,0,0,0-2.78,7.7,10.92,10.92,0,0,0,2.8,7.73,9.17,9.17,0,0,0,7,3,7.36,7.36,0,0,0,6.58-3.8v3.5h5.27V41.71h-5.27Zm-1.65,11.68a5.34,5.34,0,0,1-3.86,1.64,5.26,5.26,0,0,1-3.85-1.66,6.07,6.07,0,0,1-1.66-4.51,6,6,0,0,1,1.64-4.48A5.29,5.29,0,0,1,113.35,53a5.37,5.37,0,0,1,3.88,1.64,6.05,6.05,0,0,1,1.66,4.5A6.09,6.09,0,0,1,117.23,63.63Z"/><path class="cls-3" d="M149.1,58.83a10.06,10.06,0,0,0-2.93-7.58,10.37,10.37,0,0,0-7.51-2.84,10,10,0,0,0-7.45,2.92,10.56,10.56,0,0,0-2.88,7.77,10.75,10.75,0,0,0,2.86,7.81,9.87,9.87,0,0,0,7.42,3A10.45,10.45,0,0,0,144.89,68a9.15,9.15,0,0,0,3.5-4.86h-5.72a4.37,4.37,0,0,1-4.06,2.26,4.67,4.67,0,0,1-3.35-1.24,5,5,0,0,1-1.51-3.27H149A14.42,14.42,0,0,0,149.1,58.83Zm-15.35-1.39a5.29,5.29,0,0,1,1.6-3.31,4.69,4.69,0,0,1,3.33-1.24,5,5,0,0,1,3.41,1.24,4.52,4.52,0,0,1,1.52,3.31Z"/><polygon class="cls-3" points="58 96.82 54.23 81.02 48.66 81.02 44.83 96.86 40.99 81.02 35.64 81.02 42.04 101.87 47.69 101.87 51.3 87.87 54.87 101.87 60.52 101.87 66.92 81.02 61.84 81.02 58 96.82"/><rect class="cls-3" x="69.96" y="81.02" width="5.31" height="20.85"/><path class="cls-3" d="M72.62,72.48A3.25,3.25,0,0,0,70.34,78a3.14,3.14,0,0,0,2.28.94,3.25,3.25,0,0,0,2.27-5.53A3.06,3.06,0,0,0,72.62,72.48Z"/><path class="cls-3" d="M87.31,97a1.86,1.86,0,0,1-.49-1.45V85.34h4.67V81H86.82V75.86h-5.3V81H79.29v4.32h2.23v10.2c0,2.26.57,3.88,1.73,4.86a7.38,7.38,0,0,0,4.93,1.47h3.34V97.43H89A2.56,2.56,0,0,1,87.31,97Z"/><path class="cls-3" d="M107.45,80.72A6.93,6.93,0,0,0,101,84.14V74h-5.3v27.85H101V90.35a5.14,5.14,0,0,1,1.26-3.74,4.52,4.52,0,0,1,3.41-1.3,4.42,4.42,0,0,1,3.38,1.3,5.18,5.18,0,0,1,1.25,3.74v11.52h5.27V89.6a9.06,9.06,0,0,0-2.26-6.53A7.72,7.72,0,0,0,107.45,80.72Z"/></svg>